<?xml version="1.0" ?><svg data-name="Layer 1" id="Layer_1" viewBox="0 0 272 272" xmlns="http://www.w3.org/2000/svg"><defs><style>.cls-1{fill:#424242;}.cls-2{fill:#4cb050;}</style></defs><title/><path class="cls-1" d="M262.79,257l-24.91-24.9-5.65-5.66-5.66-5.66-5.66-5.66-5.65-5.65-5.66-5.66-5.66-5.66-5.65-5.65-5.66-5.66L187,181.19l-5.65-5.65-5.67-5.65L170,164.23l-5.65-5.65-5.66-5.66L39.89,34.13,15,9.2a4.07,4.07,0,0,0-7,2.9V259.91A4.08,4.08,0,0,0,12.07,264H259.92A4.09,4.09,0,0,0,262.79,257ZM16,256V21.56L34.23,39.79l-7.84,7.83L32,53.28l7.84-7.84,5.66,5.66L37.7,58.94l5.66,5.66,7.84-7.84,5.65,5.65L49,70.25l5.66,5.66,7.84-7.84,5.66,5.66L55,87,60.6,92.6,73.82,79.38,79.48,85l-7.84,7.84,5.66,5.66,7.84-7.84,5.65,5.65L83,104.19l5.66,5.66L96.46,102l5.66,5.66-7.85,7.85,5.65,5.65,7.85-7.85,5.66,5.66-7.85,7.85,5.66,5.66,7.85-7.85,5.65,5.65-13.23,13.23,5.66,5.66,13.23-13.23,5.66,5.66-7.85,7.85,5.66,5.65,7.85-7.84,5.65,5.65-7.85,7.85,5.66,5.66,7.85-7.85,5.66,5.66-7.85,7.85,5.65,5.65,7.85-7.85,5.66,5.66-7.85,7.85,5.66,5.66,7.85-7.85,5.65,5.65-13.23,13.23,5.66,5.66L187,192.51l5.66,5.66L184.78,206l5.65,5.65,7.85-7.85,5.66,5.66-7.85,7.85,5.66,5.66,7.85-7.85,5.65,5.65-7.85,7.85,5.66,5.66,7.85-7.85,5.66,5.66L218.72,240l5.66,5.65,7.85-7.85L250.47,256ZM76.48,138.61A11.85,11.85,0,0,0,68,135.08a12,12,0,0,0-12,12V204a12,12,0,0,0,12,12h56.92a12,12,0,0,0,8.48-20.49ZM124.92,208H68a4,4,0,0,1-4-4V147.09a4,4,0,0,1,6.83-2.83l56.91,56.91A4,4,0,0,1,124.92,208Z"/><path class="cls-2" d="M226.57,232.11,218.72,240l5.66,5.65,7.85-7.85Zm-11.32-11.32-7.85,7.85,5.66,5.66,7.85-7.85Zm-11.31-11.31-7.85,7.85,5.66,5.66,7.85-7.85Zm-11.31-11.31L184.78,206l5.65,5.65,7.85-7.85Zm-11.32-11.32-13.23,13.23,5.66,5.66L187,192.51ZM170,175.54l-7.85,7.85,5.66,5.66,7.85-7.85Zm-11.31-11.31-7.85,7.85,5.65,5.65,7.85-7.85Zm-11.32-11.32-7.85,7.85,5.66,5.66,7.85-7.85ZM136.06,141.6l-7.85,7.85,5.66,5.65,7.85-7.84Zm-11.32-11.32-13.23,13.23,5.66,5.66,13.23-13.23ZM113.43,119l-7.85,7.85,5.66,5.66,7.85-7.85Zm-11.31-11.31-7.85,7.85,5.65,5.65,7.85-7.85ZM90.79,96.35,83,104.19l5.66,5.66L96.46,102ZM79.48,85l-7.84,7.84,5.66,5.66,7.84-7.84ZM68.17,73.73,55,87,60.6,92.6,73.82,79.38ZM56.85,62.41,49,70.25l5.66,5.66,7.84-7.84ZM45.54,51.1,37.7,58.94l5.66,5.66,7.84-7.84ZM34.23,39.79l-7.84,7.83L32,53.28l7.84-7.84Z"/><polygon class="cls-1" points="45.55 39.77 45.54 39.78 39.88 45.44 32.04 53.28 26.39 47.62 34.23 39.79 39.89 34.13 39.9 34.12 45.55 39.77"/><polygon class="cls-1" points="56.87 51.09 56.86 51.1 51.2 56.76 43.36 64.6 37.7 58.94 45.54 51.1 51.2 45.44 51.21 45.43 56.87 51.09"/><polygon class="cls-1" points="68.18 62.4 68.17 62.41 62.51 68.07 54.67 75.91 49.01 70.25 56.85 62.41 62.51 56.75 62.52 56.74 68.18 62.4"/><polygon class="cls-1" points="79.49 73.71 79.48 73.72 73.82 79.38 60.6 92.6 54.95 86.95 68.17 73.73 73.83 68.07 73.84 68.06 79.49 73.71"/><polygon class="cls-1" points="90.81 85.03 90.8 85.04 85.14 90.7 77.3 98.54 71.64 92.88 79.48 85.04 85.14 79.38 85.15 79.37 90.81 85.03"/><polygon class="cls-1" points="102.12 96.34 102.11 96.35 96.46 102 88.61 109.85 82.95 104.19 90.79 96.35 96.45 90.69 96.46 90.68 102.12 96.34"/><polygon class="cls-1" points="113.43 107.65 113.42 107.66 107.77 113.31 99.92 121.16 94.27 115.51 102.12 107.66 107.77 102.01 107.78 102 113.43 107.65"/><polygon class="cls-1" points="124.75 118.97 124.74 118.98 119.09 124.63 111.24 132.48 105.58 126.82 113.43 118.97 119.08 113.32 119.09 113.31 124.75 118.97"/><polygon class="cls-1" points="136.06 130.28 136.05 130.29 130.4 135.94 117.17 149.17 111.51 143.51 124.74 130.28 130.39 124.63 130.4 124.62 136.06 130.28"/><polygon class="cls-1" points="147.38 141.6 141.72 147.26 133.87 155.1 128.21 149.45 136.06 141.6 141.71 135.95 141.72 135.94 147.38 141.6"/><polygon class="cls-1" points="158.69 152.91 158.68 152.92 153.03 158.57 145.18 166.42 139.52 160.76 147.37 152.91 153.02 147.26 153.03 147.25 158.69 152.91"/><polygon class="cls-1" points="170 164.22 169.99 164.23 164.34 169.88 156.49 177.73 150.84 172.08 164.35 158.57 170 164.22"/><polygon class="cls-1" points="181.32 175.54 167.81 189.05 162.15 183.39 170 175.54 175.65 169.89 175.66 169.88 181.32 175.54"/><rect class="cls-1" height="8" transform="translate(-83.98 184.19) rotate(-45)" width="26.71" x="167" y="189.46"/><polygon class="cls-1" points="203.94 198.16 198.28 203.82 190.43 211.67 184.78 206.02 198.29 192.51 203.94 198.16"/><rect class="cls-1" height="8" transform="translate(-90.66 207.94) rotate(-45)" width="19.11" x="196.12" y="209.4"/><polygon class="cls-1" points="226.57 220.79 213.06 234.3 207.4 228.64 215.25 220.79 220.91 215.13 226.57 220.79"/><polygon class="cls-1" points="237.89 232.1 224.38 245.61 218.72 239.96 226.57 232.11 232.23 226.45 237.89 232.1"/></svg>